<svg width="89" height="44" viewBox="0 0 89 44" fill="none" xmlns="http://www.w3.org/2000/svg">
<g clip-path="url(#clip0_731_774)">
<path d="M15.1406 15.3172H15.208C16.4276 15.3172 17.418 16.3197 17.418 17.5541H17.4652C18.5971 15.9037 20.322 15.2559 21.9324 15.2559C26.1974 15.2559 28.4411 18.727 28.4411 22.1232C28.4411 25.3352 26.0626 28.6427 22.0873 28.6427C19.4596 28.6427 18.139 27.2856 17.6673 26.4809H17.6201V33.0891C16.2524 33.0891 15.1406 31.9639 15.1406 30.5795V15.3172ZM21.7707 17.4381C19.2979 17.4381 17.573 19.5999 17.573 21.9391C17.573 24.51 19.4596 26.4604 21.838 26.4604C24.0615 26.4604 26.0829 24.6737 26.0829 21.9868C26.0829 19.7159 24.3378 17.4381 21.7707 17.4381Z" fill="#363F42"/>
<path d="M33.1766 11.334H30.8184V28.3216H33.1766V11.334Z" fill="#363F42"/>
<path d="M46.5384 28.3222V26.3514H46.4913C45.5817 27.913 43.9309 28.6496 42.233 28.6496C37.9881 28.6496 35.5625 25.3625 35.5625 22.0141C35.5625 18.9112 37.7186 15.2627 42.233 15.2627C43.9781 15.2627 45.5884 15.9992 46.4913 17.3972H46.5384V15.6105H48.8967V28.329H46.5384V28.3222ZM42.233 17.4381C39.3289 17.4381 37.9207 19.9887 37.9207 21.9868C37.9207 24.285 39.713 26.4605 42.206 26.4605C44.699 26.4605 46.5856 24.4214 46.5856 21.9868C46.5856 19.2794 44.6586 17.4381 42.233 17.4381Z" fill="#363F42"/>
<path d="M42.226 28.6423C41.7409 28.6423 41.276 28.5945 40.838 28.5127C38.1024 36.7508 30.4078 42.4179 21.7295 42.4179C10.6053 42.4179 1.55644 33.2591 1.55644 22C1.55644 10.7409 10.6121 1.58215 21.7362 1.58215C30.3472 1.58215 38.0485 7.22195 40.811 15.3986C41.2557 15.3168 41.7274 15.2622 42.226 15.2622C42.2866 15.2622 42.354 15.2691 42.4146 15.2691C39.5511 6.24675 31.149 0 21.7362 0C9.74964 0 0 9.86795 0 22C0 34.1321 9.74964 44 21.7362 44C31.2164 44 39.6319 37.7192 42.4685 28.6286C42.3877 28.6286 42.3136 28.6423 42.2327 28.6423" fill="#029DB1"/>
<path d="M60.7145 28.3222V21.414C60.7145 20.4251 60.7145 17.445 57.5815 17.445C55.6073 17.445 54.2664 18.8498 54.2664 21.3935V28.3291H51.9082V15.6105H54.1047V16.9676H54.1519C55.4254 15.2695 57.3254 15.2695 57.8308 15.2695C59.778 15.2695 61.3681 16.122 62.2777 17.5405C62.7763 18.3724 63.0458 19.3749 63.0728 20.8002V28.3291H60.7145V28.3222Z" fill="#363F42"/>
<path d="M83.482 28.3216C82.1748 28.3216 81.1237 27.2509 81.1237 25.9347V17.7853H79.4258V15.603H81.1237V11.334C82.4241 11.334 83.482 12.4047 83.482 13.7208V15.603H85.5437V17.7853H83.482V28.3216Z" fill="#363F42"/>
<path d="M78.2945 21.7754C78.2743 18.0587 75.303 15.2559 71.9003 15.2559C68.4977 15.2559 65.459 18.1269 65.459 21.9391C65.459 22.1505 65.4657 22.3687 65.4859 22.5801C65.8565 26.024 68.7875 28.6223 72.2709 28.6223C74.427 28.6223 76.5158 27.6061 77.742 25.9763L75.9026 24.8715C75.0537 25.8671 73.6926 26.4809 72.2709 26.4809C70.3506 26.4809 68.2889 25.3011 67.8172 22.9961H78.2272C78.2474 22.8324 78.2945 22.1914 78.2945 21.7822M67.8172 21.1616C67.9318 19.2999 69.6095 17.4449 71.8801 17.4449C74.1508 17.4449 75.8285 19.3067 75.9363 21.1616H67.8172Z" fill="#363F42"/>
<path d="M89.0002 27.0673C89.0002 27.7629 88.4342 28.3221 87.7335 28.3221C87.0328 28.3221 86.4668 27.7561 86.4668 27.0673C86.4668 26.3785 87.0328 25.8125 87.7335 25.8125C88.4342 25.8125 89.0002 26.3717 89.0002 27.0673Z" fill="#029DB1"/>
</g>
<defs>
<clipPath id="clip0_731_774">
<rect width="89" height="44" fill="white"/>
</clipPath>
</defs>
</svg>
