<svg id="maptilerLogo" xmlns="http://www.w3.org/2000/svg" viewBox="0 0 210.68 53.31"><defs><style>.cls-1{fill:#fff;}</style></defs><path class="cls-1" d="M26.3,51.4c2.7,2.66,9.9,9.89,9.9,9.89s7.15-7,10-9.86l-10-9.81Z" transform="translate(-12.16 -7.98)"/><path class="cls-1" d="M36.24,41.62l10,9.81,0,0,10-9.8-10-9.82Z" transform="translate(-12.16 -7.98)"/><path class="cls-1" d="M56.22,41.58l0,0a13.76,13.76,0,0,0,0-19.65l-10,9.86Z" transform="translate(-12.16 -7.98)"/><path class="cls-1" d="M26.22,31.76l-9.93,9.78h0l10,9.83,0,0,9.94-9.78Z" transform="translate(-12.16 -7.98)"/><path class="cls-1" d="M36.24,21.9l10,9.86,10-9.86h0l-10-9.84h0Z" transform="translate(-12.16 -7.98)"/><path class="cls-1" d="M16.25,21.94a13.74,13.74,0,0,0,0,19.6l9.93-9.78Z" transform="translate(-12.16 -7.98)"/><path class="cls-1" d="M36.24,21.9l-10-9.82-10,9.81a.12.12,0,0,0-.05.05l10,9.82Z" transform="translate(-12.16 -7.98)"/><path class="cls-1" d="M46.25,12.05a14.29,14.29,0,0,0-20,0l0,0,10,9.82Z" transform="translate(-12.16 -7.98)"/><path class="cls-1" d="M87.56,44V34c0-2.47-1.32-4.72-3.91-4.72S79.59,31.52,79.59,34V44H74.88V25.24h4.36l.35,2.28a5.56,5.56,0,0,1,5-2.59,5.72,5.72,0,0,1,5.64,3.5A6.94,6.94,0,0,1,96.64,25c5.41,0,8.08,3.27,8.08,8.9V44H100V33.91c0-2.47-1-4.56-3.59-4.56S92.27,31.52,92.27,34V44Z" transform="translate(-12.16 -7.98)"/><path class="cls-1" d="M124.62,25.28h4.53V44H124.7l-.23-2.73c-1.08,2.2-4.06,3.27-6.19,3.3-5.64,0-9.81-3.38-9.81-10s4.37-9.86,9.93-9.82a7,7,0,0,1,6.07,3Zm-11.44,9.36a5.41,5.41,0,0,0,5.65,5.7c7.42,0,7.42-11.37,0-11.37A5.38,5.38,0,0,0,113.18,34.64Z" transform="translate(-12.16 -7.98)"/><path class="cls-1" d="M133.13,51.88V25.28h4.41l.3,2.58a7.62,7.62,0,0,1,6.19-3,9.46,9.46,0,0,1,9.78,9.82c0,5.47-3.52,9.81-9.63,9.81-2,0-5-.61-6.34-2.66V51.88Zm16-17.2a5.41,5.41,0,0,0-10.82,0,5.41,5.41,0,0,0,10.82,0Z" transform="translate(-12.16 -7.98)"/><path class="cls-1" d="M162.23,19.57v5.67h6.5V26.8h-6.5V38.25c0,2.55.55,4.34,3.52,4.34a7.29,7.29,0,0,0,2.94-.76l.66,1.52a8.48,8.48,0,0,1-3.6.95c-4.06,0-5.37-2.36-5.37-6V26.8h-4.06V25.24h4.06V19.76Z" transform="translate(-12.16 -7.98)"/><path class="cls-1" d="M175.61,19.11a1.53,1.53,0,0,1-3.06,0A1.53,1.53,0,0,1,175.61,19.11Zm-2.51,6.05V44H175V25.16Z" transform="translate(-12.16 -7.98)"/><path class="cls-1" d="M182.29,17.4V44H180.4V17.4Z" transform="translate(-12.16 -7.98)"/><path class="cls-1" d="M212.33,25.24l.07,3.35a6.75,6.75,0,0,1,6.34-3.54,7.53,7.53,0,0,1,4.1,1.1L222,27.67a6.34,6.34,0,0,0-9.55,5.41V44h-1.89V25.24Z" transform="translate(-12.16 -7.98)"/><path class="cls-1" d="M188.74,37.82h0l15.46-4v0Z" transform="translate(-12.16 -7.98)"/><path class="cls-1" d="M196.19,42.9a8.06,8.06,0,0,1-7.45-5h0l15.45-4h0l1.64-.43a9.79,9.79,0,1,0-.68,5.22L203.61,38A8.07,8.07,0,0,1,196.19,42.9Zm-8.06-8.1A8.06,8.06,0,0,1,203.77,32l-15.53,4.06A7.81,7.81,0,0,1,188.13,34.8Z" transform="translate(-12.16 -7.98)"/></svg>