<svg id="Layer_1" data-name="Layer 1" xmlns="http://www.w3.org/2000/svg" viewBox="0 0 491.83 473.92"><path d="M240.26,234.69q0-40.89,0-81.77c0-6.24.31-6.56,6.24-6.56,27.46,0,54.93-.36,82.39.24,20.41.44,39.38,6.78,55.86,19.76,14.83,11.68,24.41,27.22,28.37,46.25,4.06,19.51,3.52,38.87-3.7,57.58C400.2,294.06,383,309,360.25,317.61a103.61,103.61,0,0,1-36.35,6.44c-26,.14-52,.07-78.06.06-5.11,0-5.57-.51-5.57-6Q240.24,276.4,240.26,234.69Zm47.33.32c0,14.86,0,29.72,0,44.59,0,4.84.67,5.51,5.28,5.54,8.93.06,17.88.34,26.8-.08,10.18-.49,20.09-2.58,28.79-8.69,18.8-13.21,23.31-38.53,16.33-60.23-5.87-18.22-19.35-27.52-36.89-29.74-11.28-1.44-22.8-.87-34.21-1.07-5.62-.1-6.1.48-6.11,6.32Q287.55,213.34,287.59,235Z"/><path d="M150.27,184.87c-2.56-.25-4.18-.53-5.8-.53-18.27,0-36.54,0-54.8,0-5.9,0-6.26-.39-6.27-6.56,0-8.81.07-17.62,0-26.44,0-3.47,1.23-5,4.64-5q56.77.09,113.55,0c3.67,0,4.82,1.69,4.75,5.28-.13,7.16.2,14.34-.17,21.48a13.08,13.08,0,0,1-2.83,7.25C194,191.2,184.44,201.8,175,212.52c-4.15,4.71-4.15,4.94,1.9,6.76,10.87,3.27,20.35,8.65,27.65,18,15.58,19.9,12.63,50.42-3.64,68.12a63.83,63.83,0,0,1-36.81,20c-29.3,5.1-57.57,1.8-84.46-12.11-3.47-1.79-4.34-3.65-2.57-7.37q6.71-14,13-28.29c1.47-3.36,3-3.69,6-1.86a79.9,79.9,0,0,0,48.4,11.75,39.68,39.68,0,0,0,14.21-4.4c5.82-2.92,8.47-8.54,8.13-15.32S163.38,256,157.29,254a71.91,71.91,0,0,0-15.76-3.25A136.34,136.34,0,0,0,125,250.6c-3.4.08-4.68-1.46-4.63-4.95.13-7.3-.2-14.61.17-21.89a13.23,13.23,0,0,1,2.82-7.26c7.9-9.4,16.1-18.52,24.16-27.77C148.33,187.79,149,186.68,150.27,184.87Z"/></svg>