<svg id="Layer_1" data-name="Layer 1" xmlns="http://www.w3.org/2000/svg" viewBox="0 0 491.83 473.92"><defs><style>.cls-1{fill:#fff;}</style></defs><path class="cls-1" d="M35.3,20c0,1.86-.11,3.72-.11,5.59V449.13c0,7.23,0,7.23,7.21,7.23H404.71c1.74,0,3.49-.07,5.23-.11-.11.24-.22.66-.35.67-.93.06-1.86,0-2.79,0H34.61q0-216.9,0-433.81A15.46,15.46,0,0,1,35.3,20Z"/><path d="M239.8,238.83q0-41.57,0-83.14c0-6.74.31-7.06,6.75-7.06,23,0,45.91-.18,68.87.05,16.47.17,32.88,1.27,48.44,7.93,29.36,12.56,47.48,34.44,52.1,68,2.72,19.77.43,38.68-8.13,56.46-10.33,21.43-27.47,34.51-48.83,42-12.08,4.27-24.57,5.82-37.21,5.9-25.21.17-50.42.07-75.63.06-5.9,0-6.35-.48-6.36-6.67Q239.78,280.6,239.8,238.83Zm47.77-.05q0,22.35,0,44.71c0,3.07.34,5.67,4.16,5.57,12.85-.33,25.79.21,38.54-1.16,13.58-1.45,24.51-8.85,31.73-21.3,6.11-10.53,7.06-22.18,6.19-34.26-1.67-22.9-17.55-40.78-39.3-42.75-11.73-1.06-23.58-.78-35.38-1-5.33-.09-5.91.61-5.92,6.28Q287.54,216.83,287.57,238.78Z"/><path d="M149.89,289.07c2.56.26,4.33.6,6.1.6,17.93.05,35.85,0,53.77,0,5.73,0,6,.35,6.05,6.44,0,9.2-.09,18.4,0,27.59.06,3.63-1,5.35-4.77,5.35q-61.92-.1-123.86,0c-3.79,0-5.22-1.63-5.14-5.51.14-7.25-.22-14.51.19-21.73a12,12,0,0,1,3.07-7.19c20.79-20.7,41.84-41.13,62.65-61.82,6.56-6.52,12.66-13.49,14.11-23.59,1.9-13.3-4.84-22.31-17.63-23.28-13.43-1-24.88,2.84-33.63,14.17a4.8,4.8,0,0,1-4.65,1c-10-5.52-19.79-11.37-29.66-17.11-2.45-1.43-2-3.13-.68-5.17a64.47,64.47,0,0,1,27.27-24.33c26.69-12.57,53.76-13.18,80.53-.31,20.06,9.63,30.58,33.37,26.6,55.92-3.52,19.93-15.09,34-28.55,47q-14.79,14.29-29.49,28.7A27.84,27.84,0,0,0,149.89,289.07Z"/></svg>