<svg id="Layer_1" data-name="Layer 1" xmlns="http://www.w3.org/2000/svg" viewBox="0 0 491.83 473.92"><path d="M245.57,165.72c40,0,71.74,31.49,71.71,71.1,0,40.53-31.12,71-70.28,71.6-40.38.65-72.26-31-72.55-71A71.27,71.27,0,0,1,245.57,165.72Zm.25,20.18c-26.67-1-52.55,23.25-51.29,53.44,1.06,25.54,23.68,49.22,51.58,49.1,27.73-.12,51.24-23.79,51.21-51.51C297.28,209.46,273.63,185,245.82,185.9Z"/><path d="M368,226.82c10.24,0,20.49-.25,30.71.08,8.46.27,12.34,6.78,9.69,14.57-1.06,3.12-4.12,4.62-7.3,5.42a6.78,6.78,0,0,1-1.74.19q-31.22,0-62.43,0c-5.29,0-10-5.15-10.37-9.27-.49-5.8,5.46-11.13,10.47-11,2.5.05,5,0,7.49,0Z"/><path d="M123.53,247.12c-10.16,0-20.31.06-30.47,0C85.53,247,81.17,241.31,83,234c1-4.08,5.25-7.21,9.92-7.21q30.47,0,60.92,0a12.47,12.47,0,0,1,1.5,0,11.38,11.38,0,0,1,8,4.81c4.32,5.79.28,14.6-7.82,15.38a29.77,29.77,0,0,1-3,.08h-29Z"/><path d="M235.73,358.81c0-10.39,0-20.79,0-31.19,0-5.52,6.28-11.34,12.64-9.76,3.51.87,7.28,5.44,7.46,9.39.14,2.91.08,5.82.08,8.73q0,26.44,0,52.9c0,3.57-.9,6.67-3.61,9.17-3.6,3.34-11.27,2.6-14.21-1.41a11.7,11.7,0,0,1-2.43-7.38c.13-10.15.05-20.3.05-30.45Z"/><path d="M235.72,115.06c0-10.23.06-20.45,0-30.68a9.8,9.8,0,0,1,5.66-9.48,9.7,9.7,0,0,1,11.38,1.6,10,10,0,0,1,3.14,7.57c0,8,0,16,0,24,0,12.63,0,25.27,0,37.91,0,6.2-4.8,10.7-10.64,10.34a10.29,10.29,0,0,1-9.47-9.79c-.07-10.47,0-20.95,0-31.42Z"/><path d="M364.26,128.49c.05,3.71-1.88,6.45-4.35,8.93C346.34,151,332.8,164.57,319.15,178a21.79,21.79,0,0,1-6.14,4.08,8.89,8.89,0,0,1-10.36-2.67c-2.14-2.51-3.51-6.82-1.8-10.15,2.15-4.18,5.7-6.9,8.8-10.05,11.86-12.07,23.93-23.95,35.87-35.95,2.55-2.56,5.39-4.64,9-4.7C360.08,118.51,364.21,122.93,364.26,128.49Z"/><path d="M311.1,291c1.62.86,4.35,1.64,6.15,3.38,11.27,10.91,22.35,22,33.46,33.1,3.64,3.63,7.11,7.43,10.77,11,3.44,3.41,3.68,10.54,0,14a10,10,0,0,1-13.77.18c-5.49-5.16-10.75-10.58-16.1-15.9-9.52-9.48-19.09-18.9-28.5-28.5-2.6-2.65-3.89-6.63-2.65-9.79C302.63,293,305.76,292,311.1,291Z"/><path d="M191.77,172.05c-.69,4.39-1.68,7.65-5.2,9.48-4.3,2.23-8.38,1.65-11.77-1.55-6.16-5.8-12.08-11.85-18.08-17.82-8.94-8.89-18-17.66-26.73-26.76a9.81,9.81,0,0,1,3.67-16c4.52-1.53,8.12-.4,11.31,2.77q19.16,19.07,38.27,38.18a51.32,51.32,0,0,1,5.53,5.71A36.8,36.8,0,0,1,191.77,172.05Z"/><path d="M137.43,355.42c-3.51.05-7.6-2.46-8.86-5.05-2.16-4.43-1.61-8.52,1.73-11.91q21.06-21.34,42.39-42.42a24.23,24.23,0,0,1,7-4.52c3.28-1.49,9.16,1.47,10.64,5,2.21,5.25,1.28,9-3.36,13.65L146.1,351C143.69,353.37,141,355.15,137.43,355.42Z"/></svg>