<svg id="Layer_1" data-name="Layer 1" xmlns="http://www.w3.org/2000/svg" viewBox="0 0 40 40"><defs><style>.cls-1{fill:#b6bf00;}</style></defs><title>download-icon</title><path id="Subtraction_1" data-name="Subtraction 1" class="cls-1" d="M22.13,28.11H9.53A1.52,1.52,0,0,1,8,26.59H8V11A1.52,1.52,0,0,1,9.52,9.45h21A1.52,1.52,0,0,1,32,11V23.12a7,7,0,0,0-9.87,5ZM16,14.83a1.12,1.12,0,0,1,.87.41l6,7.16,3-3a1.14,1.14,0,0,1,.8-.33,1.1,1.1,0,0,1,.77.3l3,2.73V11H9.52V21.74l5.6-6.51a1.15,1.15,0,0,1,.87-.4ZM26.1,17.07A2.11,2.11,0,0,1,24,15h0a2.11,2.11,0,0,1,2.1-2.1h0A2.11,2.11,0,0,1,28.2,15h0a2.11,2.11,0,0,1-2.1,2.1Z"/><path id="Subtraction_2" data-name="Subtraction 2" class="cls-1" d="M29,35.45a6,6,0,1,1,6-6A6,6,0,0,1,29,35.45Zm-3.41-3.56v1h7.07v-1Zm.48-3.84,3.05,3.09,3.06-3.09H30v-3.2a.4.4,0,0,0-.4-.4H28.4a.4.4,0,0,0-.4.4v3.2Z"/></svg>